<svg width="777" height="116" viewBox="0 0 777 116" fill="none" xmlns="http://www.w3.org/2000/svg">
<path d="M159.705 44.25C159.886 41.6818 159.205 39.6932 157.659 38.2841C156.136 36.875 153.727 36.1705 150.432 36.1705C148.25 36.1705 146.386 36.4545 144.841 37.0227C143.295 37.5682 142.08 38.3409 141.193 39.3409C140.307 40.3182 139.75 41.4545 139.523 42.75C139.318 43.7727 139.375 44.6818 139.693 45.4773C140.011 46.2727 140.568 46.9773 141.364 47.5909C142.182 48.2045 143.193 48.7386 144.398 49.1932C145.625 49.6477 147 50.0455 148.523 50.3864L154.25 51.75C157.568 52.5 160.443 53.5 162.875 54.75C165.33 55.9773 167.318 57.4659 168.841 59.2159C170.364 60.9432 171.409 62.9318 171.977 65.1818C172.545 67.4318 172.591 69.9545 172.114 72.75C171.386 77.1591 169.648 80.9432 166.898 84.1023C164.17 87.2614 160.602 89.6818 156.193 91.3636C151.807 93.0455 146.705 93.8864 140.886 93.8864C135.068 93.8864 130.125 93.0114 126.057 91.2614C122.011 89.4886 119.08 86.8182 117.261 83.25C115.443 79.6818 114.955 75.1818 115.795 69.75H131.92C131.67 72 131.955 73.875 132.773 75.375C133.614 76.875 134.909 78.0114 136.659 78.7841C138.409 79.5568 140.523 79.9432 143 79.9432C145.273 79.9432 147.261 79.6364 148.966 79.0227C150.693 78.4091 152.068 77.5568 153.091 76.4659C154.136 75.375 154.773 74.125 155 72.7159C155.227 71.4205 155.011 70.2955 154.352 69.3409C153.716 68.3864 152.625 67.5568 151.08 66.8523C149.557 66.1477 147.557 65.5114 145.08 64.9432L138.091 63.2386C132.318 61.8295 127.943 59.5795 124.966 56.4886C122.011 53.3977 120.966 49.2045 121.83 43.9091C122.557 39.5682 124.352 35.7727 127.216 32.5227C130.102 29.2727 133.75 26.75 138.159 24.9545C142.591 23.1364 147.466 22.2273 152.784 22.2273C158.193 22.2273 162.739 23.1477 166.42 24.9886C170.125 26.8068 172.795 29.375 174.432 32.6932C176.091 35.9886 176.568 39.8409 175.864 44.25H159.705ZM231.125 23.1818H247.966L240.5 68.2159C239.636 73.4205 237.648 77.9545 234.534 81.8182C231.443 85.6591 227.5 88.6364 222.705 90.75C217.909 92.8409 212.568 93.8864 206.682 93.8864C200.773 93.8864 195.784 92.8409 191.716 90.75C187.648 88.6364 184.705 85.6591 182.886 81.8182C181.068 77.9545 180.58 73.4205 181.42 68.2159L188.886 23.1818H205.761L198.5 66.75C198.114 69.1591 198.295 71.3068 199.045 73.1932C199.818 75.0568 201.068 76.5341 202.795 77.625C204.523 78.6932 206.636 79.2273 209.136 79.2273C211.659 79.2273 213.966 78.6932 216.057 77.625C218.148 76.5341 219.875 75.0568 221.239 73.1932C222.602 71.3068 223.477 69.1591 223.864 66.75L231.125 23.1818ZM273.134 93H246.952L258.543 23.1818H283.94C291.031 23.1818 296.94 24.625 301.668 27.5114C306.418 30.375 309.77 34.4886 311.724 39.8523C313.702 45.1932 314.077 51.5568 312.849 58.9432C311.668 66.0795 309.293 72.1932 305.724 77.2841C302.179 82.375 297.634 86.2727 292.088 88.9773C286.543 91.6591 280.224 93 273.134 93ZM266.179 78.6136H274.19C278.099 78.6136 281.554 77.9091 284.554 76.5C287.577 75.0682 290.077 72.7841 292.054 69.6477C294.031 66.4886 295.44 62.3409 296.281 57.2045C297.099 52.2955 297.065 48.4205 296.179 45.5795C295.315 42.7159 293.634 40.6705 291.134 39.4432C288.656 38.1932 285.418 37.5682 281.418 37.5682H273.031L266.179 78.6136ZM370.906 23.1818H387.747L380.281 68.2159C379.418 73.4205 377.429 77.9545 374.315 81.8182C371.224 85.6591 367.281 88.6364 362.486 90.75C357.69 92.8409 352.349 93.8864 346.463 93.8864C340.554 93.8864 335.565 92.8409 331.497 90.75C327.429 88.6364 324.486 85.6591 322.668 81.8182C320.849 77.9545 320.361 73.4205 321.202 68.2159L328.668 23.1818H345.543L338.281 66.75C337.895 69.1591 338.077 71.3068 338.827 73.1932C339.599 75.0568 340.849 76.5341 342.577 77.625C344.304 78.6932 346.418 79.2273 348.918 79.2273C351.44 79.2273 353.747 78.6932 355.838 77.625C357.929 76.5341 359.656 75.0568 361.02 73.1932C362.384 71.3068 363.259 69.1591 363.645 66.75L370.906 23.1818ZM393.722 36.8864L396.04 23.1818H455.051L452.733 36.8864H431.562L422.29 93H405.653L414.926 36.8864H393.722Z" fill="#564646"/>
<path d="M499.94 36.8864L502.259 23.1818H561.27L558.952 36.8864H537.781L528.509 93H511.872L521.145 36.8864H499.94ZM557.92 93L569.511 23.1818H618.193L615.875 36.8864H584.068L581.75 51.2045H611.068L608.75 64.9432H579.432L577.114 79.2955H608.92L606.602 93H557.92ZM628.761 23.1818H649.659L660.227 66.4091H661.045L685.932 23.1818H706.83L695.239 93H678.807L685.932 50.1136H685.352L661.557 92.5568H651.091L641.409 49.875H640.83L633.602 93H617.17L628.761 23.1818ZM759.594 23.1818H776.435L768.969 68.2159C768.105 73.4205 766.116 77.9545 763.003 81.8182C759.912 85.6591 755.969 88.6364 751.173 90.75C746.378 92.8409 741.037 93.8864 735.151 93.8864C729.241 93.8864 724.253 92.8409 720.185 90.75C716.116 88.6364 713.173 85.6591 711.355 81.8182C709.537 77.9545 709.048 73.4205 709.889 68.2159L717.355 23.1818H734.23L726.969 66.75C726.582 69.1591 726.764 71.3068 727.514 73.1932C728.287 75.0568 729.537 76.5341 731.264 77.625C732.991 78.6932 735.105 79.2273 737.605 79.2273C740.128 79.2273 742.435 78.6932 744.526 77.625C746.616 76.5341 748.344 75.0568 749.707 73.1932C751.071 71.3068 751.946 69.1591 752.332 66.75L759.594 23.1818Z" fill="#997877"/>
<g clip-path="url(#clip0_731_10)">
<path fill-rule="evenodd" clip-rule="evenodd" d="M2.53123 44.875C2.15247 44.8751 1.77857 44.9561 1.4371 45.1119C1.09562 45.2676 0.795272 45.4943 0.558189 45.7751C0.321106 46.0559 0.153334 46.3837 0.0672381 46.7343C-0.0188575 47.0849 -0.0210812 47.4494 0.0607309 47.801L8.42398 83.5771C9.04824 86.2493 10.6124 88.6392 12.8581 90.3523C15.1039 92.0655 17.897 92.9994 20.7765 93H50.0985C52.9779 92.9994 55.7711 92.0655 58.0168 90.3523C60.2626 88.6392 61.8267 86.2493 62.451 83.5771L63.1142 80.7377C66.9866 81.4263 70.9889 80.6574 74.2763 78.5935C77.5636 76.5296 79.8786 73.3322 80.7327 69.6762C81.5868 66.0203 80.913 62.1919 78.8536 58.9993C76.7942 55.8067 73.5104 53.4997 69.6954 52.5654L70.8142 47.801C70.896 47.4494 70.8938 47.0849 70.8077 46.7343C70.7216 46.3837 70.5539 46.0559 70.3168 45.7751C70.0797 45.4943 69.7793 45.2676 69.4379 45.1119C69.0964 44.9561 68.7225 44.8751 68.3437 44.875H2.53123ZM65.8125 76.1562C65.2767 76.1564 64.7418 76.1162 64.2127 76.0359L68.6019 57.2768C70.9433 57.9215 72.9617 59.3471 74.2867 61.2921C75.6116 63.2372 76.1544 65.5711 75.8154 67.8659C75.4763 70.1606 74.2782 72.2622 72.4408 73.785C70.6035 75.3078 68.2501 76.1497 65.8125 76.1562Z" fill="#564646"/>
<path d="M22.275 19.85L22.2598 19.8692L22.1889 19.9607C21.8206 20.4425 21.476 20.9403 21.1562 21.4525C20.8845 21.8631 20.6459 22.2927 20.4424 22.7375C20.3108 23.0262 20.2702 23.1802 20.2551 23.2332V23.2524C20.3134 23.6778 20.4708 24.0856 20.7158 24.4459C21.0954 25.086 21.6169 25.7549 22.275 26.5875L22.3256 26.6452C22.923 27.4056 23.6419 28.3152 24.1988 29.2584C24.7658 30.2209 25.3125 31.4481 25.3125 32.8437C25.3125 33.7485 24.9834 34.6147 24.7101 35.2211C24.4174 35.8663 24.0757 36.4904 23.6874 37.0884C23.2903 37.7194 22.8629 38.3329 22.4066 38.9267L22.3155 39.047L22.2902 39.0855L22.2801 39.0952C21.8779 39.6063 21.2787 39.9447 20.6141 40.0359C19.9495 40.127 19.274 39.9635 18.7363 39.5812C18.1986 39.199 17.8426 38.6293 17.7467 37.9975C17.6508 37.3658 17.8229 36.7237 18.225 36.2125L18.2402 36.1932L18.3111 36.1018C18.6794 35.62 19.024 35.1221 19.3438 34.6099C19.6155 34.1993 19.8541 33.7698 20.0576 33.325C20.1892 33.0362 20.2298 32.8822 20.2449 32.8293C20.191 32.3976 20.0353 31.983 19.7893 31.6165C19.3194 30.8699 18.7967 30.1544 18.225 29.475L18.1744 29.4172C17.4904 28.5862 16.8647 27.7132 16.3013 26.804C15.6117 25.7199 15.2281 24.485 15.1875 23.2187C15.1875 22.314 15.5166 21.4477 15.7899 20.8414C16.0886 20.1772 16.4683 19.5227 16.8126 18.9741C17.2147 18.346 17.642 17.7328 18.0934 17.1357L18.2199 16.9673C18.6221 16.4561 19.2213 16.1177 19.8859 16.0266C20.5505 15.9354 21.226 16.099 21.7637 16.4812C22.3014 16.8635 22.6574 17.4332 22.7533 18.0649C22.8492 18.6967 22.6771 19.3388 22.275 19.85ZM37.4625 19.85L37.4473 19.8692L37.3764 19.9607C37.0081 20.4425 36.6635 20.9403 36.3437 21.4525C36.072 21.8631 35.8334 22.2927 35.6299 22.7375C35.4983 23.0262 35.4577 23.1802 35.4426 23.2332V23.2524C35.5009 23.6778 35.6583 24.0856 35.9033 24.4459C36.2829 25.086 36.8044 25.7549 37.4625 26.5875L37.5131 26.6452C38.1105 27.4056 38.8294 28.3152 39.3863 29.2584C39.9533 30.2209 40.5 31.4481 40.5 32.8437C40.5 33.7485 40.1709 34.6147 39.8976 35.2211C39.6049 35.8663 39.2632 36.4904 38.8749 37.0884C38.4778 37.7194 38.0504 38.3329 37.5941 38.9267L37.503 39.047L37.4777 39.0855L37.4676 39.0952C37.0654 39.6063 36.4662 39.9447 35.8016 40.0359C35.137 40.127 34.4615 39.9635 33.9238 39.5812C33.3861 39.199 33.0301 38.6293 32.9342 37.9975C32.8383 37.3658 33.0104 36.7237 33.4125 36.2125L33.4277 36.1932L33.4986 36.1018C33.8669 35.62 34.2115 35.1221 34.5313 34.6099C34.803 34.1993 35.0416 33.7698 35.2451 33.325C35.3767 33.0362 35.4173 32.8822 35.4324 32.8293C35.3785 32.3976 35.2228 31.983 34.9768 31.6165C34.5069 30.8699 33.9842 30.1544 33.4125 29.475L33.3619 29.4172C32.6779 28.5862 32.0522 27.7132 31.4887 26.804C30.7992 25.7199 30.4156 24.485 30.375 23.2187C30.375 22.314 30.7041 21.4477 30.9774 20.8414C31.2761 20.1772 31.6558 19.5227 32.0001 18.9741C32.4022 18.346 32.8295 17.7328 33.2809 17.1357L33.4074 16.9673C33.8096 16.4561 34.4088 16.1177 35.0734 16.0266C35.738 15.9354 36.4135 16.099 36.9512 16.4812C37.4889 16.8635 37.8449 17.4332 37.9408 18.0649C38.0367 18.6967 37.8646 19.3388 37.4625 19.85ZM52.65 19.85L52.6348 19.8692L52.5639 19.9607C52.1956 20.4425 51.851 20.9403 51.5312 21.4525C51.2595 21.8631 51.0209 22.2927 50.8174 22.7375C50.6858 23.0262 50.6453 23.1802 50.6301 23.2332V23.2524C50.6884 23.6778 50.8458 24.0856 51.0908 24.4459C51.4704 25.086 51.9919 25.7549 52.65 26.5875L52.7006 26.6452C53.298 27.4056 54.0169 28.3152 54.5737 29.2584C55.1407 30.2209 55.6875 31.4481 55.6875 32.8437C55.6875 33.7485 55.3584 34.6147 55.0851 35.2211C54.7924 35.8663 54.4507 36.4904 54.0624 37.0884C53.6669 37.7193 53.2412 38.3328 52.7867 38.9267L52.6905 39.047L52.6652 39.0855L52.6551 39.0952C52.2529 39.6063 51.6537 39.9447 50.9891 40.0359C50.3245 40.127 49.649 39.9635 49.1113 39.5812C48.5736 39.199 48.2176 38.6293 48.1217 37.9975C48.0258 37.3658 48.1979 36.7237 48.6 36.2125L48.6152 36.1932L48.6861 36.1018C49.0544 35.62 49.399 35.1221 49.7188 34.6099C49.9905 34.1993 50.2291 33.7698 50.4326 33.325C50.5642 33.0362 50.6047 32.8822 50.6199 32.8293C50.566 32.3976 50.4103 31.983 50.1643 31.6165C49.6944 30.8699 49.1718 30.1544 48.6 29.475L48.5494 29.4172C47.8654 28.5862 47.2397 27.7132 46.6763 26.804C45.9867 25.7199 45.6031 24.485 45.5625 23.2187C45.5625 22.314 45.8916 21.4477 46.1649 20.8414C46.4636 20.1772 46.8433 19.5227 47.1876 18.9741C47.5897 18.346 48.017 17.7328 48.4684 17.1357L48.5949 16.9673C48.9971 16.4561 49.5963 16.1177 50.2609 16.0266C50.9255 15.9354 51.601 16.099 52.1387 16.4812C52.6764 16.8635 53.0324 17.4332 53.1283 18.0649C53.2242 18.6967 53.0521 19.3388 52.65 19.85Z" fill="#997877"/>
</g>
<line x1="117" y1="3" x2="490" y2="3" stroke="#7C5D5C" stroke-width="4"/>
<line x1="439" y1="114" x2="775" y2="114" stroke="#7C5D5C" stroke-width="4"/>
<line x1="487.839" y1="3.78582" x2="440.839" y2="113.786" stroke="#7C5D5C" stroke-width="4"/>
<defs>
<clipPath id="clip0_731_10">
<rect width="81" height="77" fill="white" transform="translate(0 16)"/>
</clipPath>
</defs>
</svg>
